<svg xmlns="http://www.w3.org/2000/svg" xmlns:xlink="http://www.w3.org/1999/xlink" width="100" zoomAndPan="magnify" viewBox="0 0 75 37.5" height="50" preserveAspectRatio="xMidYMid meet" version="1.0"><defs><g/><clipPath id="4bdc1591e9"><path d="M 4.195312 3.347656 L 15.296875 3.347656 L 15.296875 21 L 4.195312 21 Z M 4.195312 3.347656 " clip-rule="nonzero"/></clipPath><clipPath id="c6485672d8"><path d="M 4.195312 9 L 7 9 L 7 32.953125 L 4.195312 32.953125 Z M 4.195312 9 " clip-rule="nonzero"/></clipPath><clipPath id="2319b26ce4"><path d="M 7 14 L 15.296875 14 L 15.296875 17 L 7 17 Z M 7 14 " clip-rule="nonzero"/></clipPath></defs><g fill="#000000" fill-opacity="1"><g transform="translate(16.381946, 17.11156)"><g><path d="M 1.4375 0.109375 C 1.15625 0.109375 0.910156 0.0351562 0.703125 -0.109375 C 0.492188 -0.265625 0.3125 -0.492188 0.15625 -0.796875 L 0.515625 -1.015625 C 0.640625 -0.785156 0.773438 -0.609375 0.921875 -0.484375 C 1.078125 -0.367188 1.238281 -0.3125 1.40625 -0.3125 C 1.550781 -0.3125 1.6875 -0.34375 1.8125 -0.40625 C 1.9375 -0.46875 2.03125 -0.554688 2.09375 -0.671875 C 2.164062 -0.785156 2.203125 -0.90625 2.203125 -1.03125 C 2.203125 -1.164062 2.164062 -1.289062 2.09375 -1.40625 C 2.019531 -1.519531 1.910156 -1.632812 1.765625 -1.75 C 1.628906 -1.875 1.390625 -2.078125 1.046875 -2.359375 C 0.890625 -2.484375 0.769531 -2.59375 0.6875 -2.6875 C 0.601562 -2.78125 0.535156 -2.878906 0.484375 -2.984375 C 0.441406 -3.097656 0.421875 -3.234375 0.421875 -3.390625 C 0.421875 -3.578125 0.46875 -3.75 0.5625 -3.90625 C 0.65625 -4.0625 0.78125 -4.179688 0.9375 -4.265625 C 1.09375 -4.347656 1.269531 -4.390625 1.46875 -4.390625 C 1.707031 -4.390625 1.910156 -4.328125 2.078125 -4.203125 C 2.253906 -4.085938 2.421875 -3.914062 2.578125 -3.6875 L 2.234375 -3.421875 C 2.140625 -3.546875 2.054688 -3.640625 1.984375 -3.703125 C 1.921875 -3.773438 1.84375 -3.832031 1.75 -3.875 C 1.664062 -3.925781 1.566406 -3.953125 1.453125 -3.953125 C 1.328125 -3.953125 1.222656 -3.925781 1.140625 -3.875 C 1.054688 -3.820312 0.988281 -3.753906 0.9375 -3.671875 C 0.894531 -3.585938 0.875 -3.5 0.875 -3.40625 C 0.875 -3.269531 0.910156 -3.144531 0.984375 -3.03125 C 1.066406 -2.914062 1.1875 -2.800781 1.34375 -2.6875 C 1.65625 -2.457031 1.894531 -2.265625 2.0625 -2.109375 C 2.238281 -1.960938 2.378906 -1.800781 2.484375 -1.625 C 2.597656 -1.445312 2.65625 -1.253906 2.65625 -1.046875 C 2.65625 -0.847656 2.597656 -0.660156 2.484375 -0.484375 C 2.378906 -0.304688 2.234375 -0.160156 2.046875 -0.046875 C 1.867188 0.0546875 1.664062 0.109375 1.4375 0.109375 Z M 1.4375 0.109375 "/></g></g></g><g fill="#000000" fill-opacity="1"><g transform="translate(24.058346, 17.11156)"><g><path d="M 2.59375 0.109375 C 2.164062 0.109375 1.78125 0.0078125 1.4375 -0.1875 C 1.09375 -0.394531 0.820312 -0.671875 0.625 -1.015625 C 0.425781 -1.359375 0.328125 -1.726562 0.328125 -2.125 C 0.328125 -2.539062 0.425781 -2.921875 0.625 -3.265625 C 0.832031 -3.617188 1.101562 -3.894531 1.4375 -4.09375 C 1.78125 -4.289062 2.15625 -4.390625 2.5625 -4.390625 C 2.988281 -4.390625 3.375 -4.289062 3.71875 -4.09375 C 4.070312 -3.894531 4.347656 -3.625 4.546875 -3.28125 C 4.753906 -2.9375 4.859375 -2.554688 4.859375 -2.140625 C 4.859375 -1.722656 4.753906 -1.34375 4.546875 -1 C 4.347656 -0.65625 4.078125 -0.382812 3.734375 -0.1875 C 3.390625 0.0078125 3.007812 0.109375 2.59375 0.109375 Z M 2.578125 -0.3125 C 2.910156 -0.3125 3.21875 -0.390625 3.5 -0.546875 C 3.78125 -0.703125 4 -0.921875 4.15625 -1.203125 C 4.320312 -1.484375 4.40625 -1.800781 4.40625 -2.15625 C 4.40625 -2.5 4.316406 -2.8125 4.140625 -3.09375 C 3.972656 -3.375 3.75 -3.585938 3.46875 -3.734375 C 3.195312 -3.890625 2.898438 -3.96875 2.578125 -3.96875 C 2.265625 -3.96875 1.96875 -3.890625 1.6875 -3.734375 C 1.414062 -3.578125 1.195312 -3.359375 1.03125 -3.078125 C 0.863281 -2.796875 0.78125 -2.476562 0.78125 -2.125 C 0.78125 -1.78125 0.863281 -1.46875 1.03125 -1.1875 C 1.195312 -0.914062 1.414062 -0.703125 1.6875 -0.546875 C 1.957031 -0.390625 2.253906 -0.3125 2.578125 -0.3125 Z M 2.578125 -0.3125 "/></g></g></g><g fill="#000000" fill-opacity="1"><g transform="translate(34.013219, 17.11156)"><g><path d="M 2.640625 0.09375 C 2.179688 0.09375 1.773438 -0.00390625 1.421875 -0.203125 C 1.066406 -0.398438 0.796875 -0.671875 0.609375 -1.015625 C 0.421875 -1.359375 0.328125 -1.742188 0.328125 -2.171875 C 0.328125 -2.585938 0.425781 -2.960938 0.625 -3.296875 C 0.832031 -3.640625 1.109375 -3.90625 1.453125 -4.09375 C 1.804688 -4.289062 2.203125 -4.390625 2.640625 -4.390625 C 3.035156 -4.390625 3.390625 -4.3125 3.703125 -4.15625 C 4.023438 -4.007812 4.289062 -3.785156 4.5 -3.484375 L 4.15625 -3.234375 C 3.96875 -3.472656 3.742188 -3.65625 3.484375 -3.78125 C 3.234375 -3.90625 2.957031 -3.96875 2.65625 -3.96875 C 2.3125 -3.96875 2 -3.890625 1.71875 -3.734375 C 1.4375 -3.578125 1.207031 -3.359375 1.03125 -3.078125 C 0.863281 -2.796875 0.78125 -2.476562 0.78125 -2.125 C 0.78125 -1.78125 0.863281 -1.46875 1.03125 -1.1875 C 1.195312 -0.90625 1.421875 -0.6875 1.703125 -0.53125 C 1.992188 -0.375 2.316406 -0.296875 2.671875 -0.296875 C 2.972656 -0.296875 3.25 -0.351562 3.5 -0.46875 C 3.75 -0.59375 3.972656 -0.769531 4.171875 -1 L 4.515625 -0.75 C 4.296875 -0.46875 4.023438 -0.253906 3.703125 -0.109375 C 3.390625 0.0234375 3.035156 0.09375 2.640625 0.09375 Z M 2.640625 0.09375 "/></g></g></g><g fill="#000000" fill-opacity="1"><g transform="translate(43.640041, 17.11156)"><g><path d="M 0.515625 -4.28125 L 2.96875 -4.28125 L 2.96875 -3.875 L 0.953125 -3.875 L 0.953125 -2.515625 L 2.96875 -2.515625 L 2.96875 -2.109375 L 0.953125 -2.109375 L 0.953125 -0.421875 L 2.96875 -0.421875 L 2.96875 0 L 0.515625 0 Z M 0.515625 -4.28125 "/></g></g></g><g fill="#000000" fill-opacity="1"><g transform="translate(51.60274, 17.11156)"><g><path d="M 0.515625 -4.28125 L 0.953125 -4.28125 L 0.953125 0 L 0.515625 0 Z M 0.515625 -4.28125 "/></g></g></g><g fill="#000000" fill-opacity="1"><g transform="translate(57.835706, 17.11156)"><g><path d="M 1.0625 -3.875 L 0.09375 -3.875 L 0.09375 -4.28125 L 2.453125 -4.28125 L 2.453125 -3.875 L 1.5 -3.875 L 1.5 0 L 1.0625 0 Z M 1.0625 -3.875 "/></g></g></g><g fill="#000000" fill-opacity="1"><g transform="translate(65.148262, 17.11156)"><g><path d="M 1.46875 -2.046875 L 0.09375 -4.28125 L 0.578125 -4.28125 L 1.6875 -2.515625 L 2.765625 -4.28125 L 3.265625 -4.28125 L 1.890625 -2.046875 L 1.890625 0 L 1.46875 0 Z M 1.46875 -2.046875 "/></g></g></g><g clip-path="url(#4bdc1591e9)"><path stroke-linecap="square" transform="matrix(1.83931, 0, 0, 1.838836, -9.65965, -3.822831)" fill="none" stroke-linejoin="round" d="M 12.844219 4.426298 L 11.15583 4.426298 C 10.958321 4.426298 10.762935 4.445417 10.569673 4.483654 C 10.378535 4.524016 10.18952 4.579248 10.009001 4.655723 C 9.826357 4.730074 9.652209 4.823543 9.48868 4.931883 C 9.32515 5.042347 9.174363 5.165557 9.034195 5.305761 C 8.896151 5.445965 8.770849 5.596791 8.662537 5.760362 C 8.552102 5.923934 8.46078 6.096002 8.384325 6.278693 C 8.309994 6.461383 8.252652 6.648322 8.214424 6.841634 C 8.176197 7.034946 8.154959 7.230382 8.154959 7.427942 L 8.154959 12.298975 " stroke="#000000" stroke-width="1" stroke-opacity="1" stroke-miterlimit="4"/></g><g clip-path="url(#c6485672d8)"><path stroke-linecap="square" transform="matrix(1.83931, 0, 0, 1.838836, -9.65965, -3.822831)" fill="none" stroke-linejoin="round" d="M 8.154959 7.823063 L 8.154959 19.572598 " stroke="#000000" stroke-width="1" stroke-opacity="1" stroke-miterlimit="4"/></g><g clip-path="url(#2319b26ce4)"><path stroke-linecap="square" transform="matrix(1.83931, 0, 0, 1.838836, -9.65965, -3.822831)" fill="none" stroke-linejoin="round" d="M 10.07059 10.603779 L 12.844219 10.603779 " stroke="#000000" stroke-width="1" stroke-opacity="1" stroke-miterlimit="4"/></g></svg>