<?xml version="1.0" standalone="no"?>
<!DOCTYPE svg PUBLIC "-//W3C//DTD SVG 20010904//EN"
 "http://www.w3.org/TR/2001/REC-SVG-20010904/DTD/svg10.dtd">
<svg version="1.0" xmlns="http://www.w3.org/2000/svg"
 width="300.000000pt" height="300.000000pt" viewBox="0 0 300.000000 300.000000"
 preserveAspectRatio="xMidYMid meet">
<metadata>
Created by potrace 1.10, written by Peter Selinger 2001-2011
</metadata>
<g transform="translate(0.000000,300.000000) scale(0.100000,-0.100000)"
fill="#000000" stroke="none">
<path d="M1194 2183 c3 -76 5 -147 4 -158 0 -11 -2 -196 -4 -411 l-4 -390 338
-1 339 -1 -5 166 c-3 132 -8 171 -20 185 -14 16 -14 22 1 65 15 40 17 91 17
359 l0 311 -83 7 c-46 4 -126 4 -178 0 -110 -7 -167 -7 -307 1 l-103 5 5 -138z
m401 84 l210 -2 3 -105 c2 -68 -1 -113 -9 -127 -9 -18 -10 -29 -1 -48 15 -33
16 -313 1 -352 -8 -21 -7 -40 6 -78 11 -38 15 -83 13 -171 l-3 -119 -185 4
c-102 2 -185 4 -185 5 0 0 1 108 3 239 l3 237 111 0 c101 0 114 2 135 22 32
30 30 71 -4 98 -25 19 -38 21 -133 19 l-105 -3 0 76 c1 51 6 82 15 94 24 28
75 44 142 44 72 0 108 24 108 71 0 47 -40 69 -125 69 -122 0 -200 -40 -248
-129 l-27 -49 0 -395 0 -395 -26 -6 c-14 -4 -34 -4 -45 -1 -19 6 -20 16 -15
373 2 202 5 376 5 387 0 11 -2 66 -5 123 -8 131 -4 137 86 127 36 -4 160 -8
275 -8z m95 -96 l0 -29 -94 -4 c-107 -3 -138 -18 -168 -79 -16 -31 -18 -72
-18 -406 l0 -372 -25 2 -26 2 1 388 c1 422 0 415 58 470 42 40 95 56 190 57
l82 0 0 -29z m0 -351 l0 -30 -115 0 -115 0 0 30 0 30 115 0 115 0 0 -30z"/>
<path d="M2060 1107 c-3 -3 -219 -8 -480 -12 -261 -4 -493 -9 -515 -10 -22 -2
-123 -4 -225 -5 -102 0 -201 -5 -220 -10 -34 -9 473 -6 900 5 107 3 338 8 513
11 175 4 316 8 314 10 -6 6 -282 16 -287 11z"/>
<path d="M850 920 c-1 -74 -2 -143 -1 -152 1 -10 -2 -18 -7 -18 -10 0 -35 -50
-28 -57 2 -3 11 8 20 24 l15 28 2 -30 c2 -16 5 31 8 105 3 74 3 158 0 185 -4
34 -7 6 -9 -85z"/>
<path d="M1169 921 c-2 -73 -2 -159 1 -190 3 -39 6 -14 10 84 3 77 2 163 -1
190 -4 35 -7 10 -10 -84z"/>
<path d="M1459 920 c-2 -74 -1 -157 2 -185 4 -36 7 -12 10 80 2 72 1 155 -2
185 -4 40 -6 19 -10 -80z"/>
<path d="M1579 921 c-2 -73 -2 -159 1 -190 3 -39 6 -14 10 84 3 77 2 163 -1
190 -4 35 -7 10 -10 -84z"/>
<path d="M1849 924 c-1 -71 -1 -158 0 -194 l3 -65 -429 0 c-486 -1 -813 -20
-813 -48 0 -6 24 -7 68 -3 189 20 304 26 597 32 329 7 616 -3 928 -32 144 -13
179 -13 166 0 -5 5 -277 32 -422 42 l-87 6 1 189 c1 105 -1 193 -5 196 -3 4
-7 -52 -7 -123z"/>
<path d="M2140 915 c-3 -76 -2 -164 1 -195 4 -40 7 -17 10 85 2 77 2 165 -1
195 -4 39 -7 14 -10 -85z"/>
<path d="M1811 955 c1 -48 1 -49 10 -17 6 21 6 39 0 50 -8 13 -10 5 -10 -33z"/>
<path d="M662 967 c-15 -16 -22 -36 -22 -65 l0 -42 60 -17 c58 -16 60 -17 60
-50 l0 -33 -55 0 c-50 0 -55 -2 -55 -21 0 -21 3 -22 77 -15 42 3 78 8 81 10 2
3 5 28 6 57 l1 52 -40 13 c-22 7 -52 16 -67 19 -23 4 -28 11 -28 36 l0 31 65
-4 c62 -4 65 -3 65 19 0 21 -5 23 -49 23 -27 0 -56 2 -63 5 -8 3 -24 -5 -36
-18z"/>
<path d="M960 974 c0 -9 -9 -18 -19 -21 -34 -9 -44 -125 -18 -200 9 -26 17
-33 49 -38 21 -4 55 -4 76 0 32 5 42 13 56 41 25 53 32 147 14 173 -34 48
-158 84 -158 45z m112 -67 c18 -39 12 -102 -13 -138 -23 -33 -64 -29 -96 10
-36 42 -23 133 23 159 30 17 70 2 86 -31z"/>
<path d="M1254 961 l-34 -24 0 -98 0 -97 28 -9 c31 -10 128 -9 155 2 11 5 17
18 17 41 0 27 -4 34 -20 34 -15 0 -20 -7 -20 -25 0 -23 -3 -25 -50 -25 -45 0
-52 3 -60 26 -6 14 -10 52 -10 85 l0 59 33 0 c17 0 41 3 53 6 17 5 22 0 27
-25 5 -22 12 -31 27 -31 17 0 20 7 20 39 0 49 -12 58 -79 62 -44 3 -59 0 -87
-20z"/>
<path d="M1703 982 l-73 -3 0 -127 0 -127 90 3 c77 3 90 6 90 21 0 14 -9 16
-70 13 l-70 -4 0 41 0 41 48 0 c61 0 92 9 92 26 0 20 -77 19 -97 -1 -24 -24
-41 -3 -34 42 6 38 7 38 61 43 38 3 55 9 55 19 0 17 -2 18 -92 13z"/>
<path d="M2345 944 c-14 -24 -31 -44 -37 -44 -5 0 -25 16 -42 35 -38 41 -42
42 -57 14 -9 -18 -6 -26 26 -59 37 -38 37 -39 33 -109 -3 -58 -1 -70 10 -66 7
3 20 5 28 5 11 0 14 16 14 66 0 65 1 67 50 121 52 56 54 67 21 76 -16 4 -26
-5 -46 -39z"/>
<path d="M1500 850 l0 -130 25 0 25 0 0 130 0 130 -25 0 -25 0 0 -130z"/>
<path d="M1923 973 c-7 -2 -13 -14 -13 -25 0 -17 6 -19 38 -16 l37 3 -3 -75
c-1 -41 -4 -90 -7 -107 -5 -30 -4 -33 20 -33 l25 0 0 111 0 111 37 -4 c29 -2
39 1 41 13 2 10 -6 19 -20 23 -27 7 -137 7 -155 -1z"/>
<path d="M1351 843 c0 -16 4 -37 9 -48 5 -14 7 -6 6 27 0 27 -4 48 -8 48 -5 0
-8 -12 -7 -27z"/>
</g>
</svg>
